# xmcd
#
# Track frame offsets:
#	150
#	13125
#	30525
#	45076
#	60376
#	75527
#	91202
#	107403
#	119103
#	133878
#	148128
#	162828
#	176478
#	191704
#
# Disc length: 2863 seconds
#
# Revision: 1
# Processed by: cddbd v1.5.1PL0 Copyright (c) Steve Scherf et al.
# Submitted via: CDex 1.50Beta5
#
DISCID=b50b2d0e
DTITLE=NEATBEATS,THE - GOLDEN GOODIES
DYEAR=2002
DGENRE=Rock
TTITLE0=YAH!YAH!YAH!
TTITLE1=今夜あたり
TTITLE2=HAMBURG TWIST
TTITLE3=59BAR
TTITLE4=トップ・シークレット
TTITLE5=WAKE UP and CRY
TTITLE6=FEEL ALL NITE
TTITLE7=オレにまかせろ
TTITLE8=甘いジュース
TTITLE9=もうすぐ春が来る
TTITLE10=HEY 彼女
TTITLE11=GOODBYEサヨウナラ
TTITLE12=SHE’S ALL RIGHT
TTITLE13=ジェニージェニー
EXTD=
EXTT0=
EXTT1=
EXTT2=
EXTT3=
EXTT4=
EXTT5=
EXTT6=
EXTT7=
EXTT8=
EXTT9=
EXTT10=
EXTT11=
EXTT12=
EXTT13=
PLAYORDER=
